<?xml version="1.0" encoding="UTF-8"?>
<svg width="24px" height="24px" viewBox="0 0 24 24" version="1.1" xmlns="http://www.w3.org/2000/svg" xmlns:xlink="http://www.w3.org/1999/xlink">
    <title>call</title>
    <g id="Desktop-app" stroke="none" stroke-width="1" fill="none" fill-rule="evenodd" stroke-linecap="round" stroke-linejoin="round">
        <g id="Chat-Copy" transform="translate(-184.000000, -504.000000)" stroke="#778A9F" stroke-width="2">
            <g id="phone" transform="translate(185.000000, 505.000000)">
                <path d="M21.4095,15.9922 L18.4975,13.0802 C17.7105,12.2922 16.4325,12.2922 15.6455,13.0802 L13.2305,15.4952 C10.2005,14.2282 7.7725,11.8002 6.5055,8.7702 L8.9205,6.3552 C9.7075,5.5672 9.7075,4.2902 8.9205,3.5032 L6.0085,0.5912 C5.2205,-0.1968 3.9435,-0.1968 3.1555,0.5912 L1.7715,1.9752 C0.3325,3.4132 -0.2735,5.4762 0.1165,7.4722 C1.5335,14.7322 7.2675,20.4672 14.5285,21.8852 C16.5245,22.2742 18.5875,21.6672 20.0255,20.2292 L21.4095,18.8452 C22.1975,18.0572 22.1975,16.7802 21.4095,15.9922 Z" id="Stroke"></path>
            </g>
        </g>
    </g>
</svg>