<?xml version="1.0" encoding="UTF-8"?>
<svg width="24px" height="24px" viewBox="0 0 24 24" version="1.1" xmlns="http://www.w3.org/2000/svg" xmlns:xlink="http://www.w3.org/1999/xlink">
    <title>message</title>
    <g id="Desktop-app" stroke="none" stroke-width="1" fill="none" fill-rule="evenodd" stroke-linecap="round" stroke-linejoin="round">
        <g id="Chat-Copy" transform="translate(-184.000000, -644.000000)" stroke="#778A9F" stroke-width="2">
            <g id="message" transform="translate(185.000300, 645.000000)">
                <path d="M7.4199,17.1787 C8.4269,18.2947 9.8789,18.9997 11.4999,18.9997 L13.4439,18.9997 L18.9999,21.9997 L18.9999,18.3947 C20.7799,17.4837 21.9999,15.6367 21.9999,13.4997 C21.9999,11.8987 21.3109,10.4637 20.2189,9.4587" id="Stroke"></path>
                <path d="M10.5,0 L5.5,0 C2.462,0 0,2.462 0,5.5 C0,7.636 1.221,9.484 3,10.395 L3,14.5 L8,11 L10.5,11 C13.538,11 16,8.538 16,5.5 C16,2.462 13.538,0 10.5,0 Z" id="Stroke"></path>
            </g>
        </g>
    </g>
</svg>