<svg xmlns="http://www.w3.org/2000/svg" width="24" height="24" viewBox="0 0 24 24">
    <path fill="none" fill-rule="evenodd" stroke="#778A9F" stroke-linecap="round" stroke-linejoin="round" stroke-width="2" d="M22.41 16.992l-2.913-2.912a2.016 2.016 0 0 0-2.851 0l-2.416 2.415A12.56 12.56 0 0 1 7.505 9.77L9.92 7.355a2.018 2.018 0 0 0 0-2.852L7.008 1.591a2.017 2.017 0 0 0-2.853 0L2.771 2.975a6.103 6.103 0 0 0-1.655 5.497c1.417 7.26 7.151 12.995 14.412 14.413a6.11 6.11 0 0 0 5.497-1.656l1.385-1.384a2.017 2.017 0 0 0 0-2.853z"/>
</svg>
