<svg xmlns="http://www.w3.org/2000/svg" width="20" height="14" viewBox="0 0 20 14">
    <g fill="#FFF" fill-rule="nonzero">
        <path d="M18.524 2.017l-5.727 4.286a.881.881 0 0 0 0 1.394l5.727 4.286c.542.405 1.294 0 1.294-.697V2.714c0-.697-.752-1.102-1.294-.697zm-.342 2.363v5.24L14.68 7l3.502-2.62z"/>
        <path d="M2.636.143h9c1.356 0 2.455 1.151 2.455 2.571v8.572c0 1.42-1.099 2.571-2.455 2.571h-9c-1.355 0-2.454-1.151-2.454-2.571V2.714C.182 1.294 1.28.143 2.636.143zm0 1.714c-.452 0-.818.384-.818.857v8.572c0 .473.366.857.818.857h9c.452 0 .819-.384.819-.857V2.714c0-.473-.367-.857-.819-.857h-9z"/>
    </g>
</svg>
