<svg xmlns="http://www.w3.org/2000/svg" width="12" height="18" viewBox="0 0 12 18">
    <g fill="none" fill-rule="evenodd">
        <g fill="#D8D8D8">
            <g>
                <path d="M7.04 14.657v2.057h3.26V18H1.825v-1.286h3.26v-2.057C2.216 14.271 0 12.021 0 9.257V7.071h1.825c0 .193-.065.386-.065.579V9c0 2.121 1.89 3.857 4.237 3.857 2.347 0 4.237-1.736 4.237-3.857V7.65c0-.193 0-.386-.065-.579h1.826v2.186c.13 2.764-2.086 5.014-4.955 5.4zm-.978-3.086c-1.63 0-2.933-1.285-2.933-2.892V2.893C3.129 1.286 4.433 0 6.062 0c1.63 0 2.934 1.286 2.934 2.893v5.786c0 1.607-1.304 2.892-2.934 2.892z" transform="translate(-61 -753) translate(61 753)"/>
            </g>
        </g>
    </g>
</svg>
