<?xml version="1.0" encoding="UTF-8"?>
<svg width="24px" height="22px" viewBox="0 0 24 22" version="1.1" xmlns="http://www.w3.org/2000/svg" xmlns:xlink="http://www.w3.org/1999/xlink">
    <title>book</title>
    <g id="Desktop-app" stroke="none" stroke-width="1" fill="none" fill-rule="evenodd" stroke-linecap="round" stroke-linejoin="round">
        <g id="Chat-Copy" transform="translate(-184.000000, -574.000000)" stroke="#778A9F" stroke-width="2">
            <g id="contact-book" transform="translate(185.000000, 575.000000)">
                <path d="M16.0003,20 L4.0003,20 C2.8963,20 2.0003,19.104 2.0003,18 L2.0003,2 C2.0003,0.896 2.8963,0 4.0003,0 L18.0003,0 L18.0003,18 C18.0003,19.104 17.1043,20 16.0003,20 Z" id="Stroke"></path>
                <path d="M10.0003,11 C11.3803,11 12.5003,9.88 12.5003,8.5 C12.5003,7.12 11.3803,6 10.0003,6 C8.6203,6 7.5003,7.12 7.5003,8.5 C7.5003,9.88 8.6203,11 10.0003,11 Z" id="Stroke"></path>
                <path d="M14.0003,15.1719 C13.0863,14.4619 11.6313,13.9999 10.0003,13.9999 C8.3693,13.9999 6.9143,14.4619 6.0003,15.1719" id="Stroke"></path>
                <line x1="0.0003" y1="4" x2="2.0003" y2="4" id="Stroke"></line>
                <line x1="0.0003" y1="10" x2="2.0003" y2="10" id="Stroke"></line>
                <line x1="0.0003" y1="16" x2="2.0003" y2="16" id="Stroke"></line>
                <path d="M18.0003,0 L20.0003,0 C21.1043,0 22.0003,0.896 22.0003,2 L22.0003,4 C22.0003,5.104 21.1043,6 20.0003,6 L18.0003,6" id="Stroke"></path>
                <path d="M18.0003,6 L20.0003,6 C21.1043,6 22.0003,6.896 22.0003,8 L22.0003,10 C22.0003,11.104 21.1043,12 20.0003,12 L18.0003,12" id="Stroke"></path>
            </g>
        </g>
    </g>
</svg>