<?xml version="1.0" encoding="UTF-8"?>
<svg width="24px" height="24px" viewBox="0 0 24 24" version="1.1" xmlns="http://www.w3.org/2000/svg" xmlns:xlink="http://www.w3.org/1999/xlink">
    <title>setting</title>
    <g id="Desktop-app" stroke="none" stroke-width="1" fill="none" fill-rule="evenodd" stroke-linecap="round" stroke-linejoin="round">
        <g id="Chat-Copy" transform="translate(-184.000000, -714.000000)" stroke="#778A9F" stroke-width="2">
            <g id="setting" transform="translate(185.887605, 715.000000)">
                <path d="M17.9583951,12.561 C18.0583951,12.056 18.1123951,11.534 18.1123951,11 C18.1123951,10.465 18.0583951,9.944 17.9583951,9.439 L19.7643951,7.95 C20.2673951,7.536 20.3963951,6.818 20.0713951,6.254 L19.2023951,4.746 C18.8763951,4.182 18.1913951,3.936 17.5823951,4.164 L15.3843951,4.989 C14.6043951,4.305 13.6943951,3.771 12.6923951,3.43 L12.3073951,1.114 C12.2003951,0.471 11.6453951,0 10.9933951,0 L9.25539512,0 C8.60439512,0 8.04939512,0.471 7.94239512,1.114 L7.55739512,3.43 C6.55539512,3.771 5.64439512,4.305 4.86539512,4.989 L2.66739512,4.164 C2.05839512,3.936 1.37239512,4.182 1.04739512,4.746 L0.178395122,6.254 C-0.146604878,6.818 -0.0176048776,7.536 0.484395122,7.95 L2.29139512,9.439 C2.19039512,9.944 2.13739512,10.465 2.13739512,11 C2.13739512,11.534 2.19039512,12.056 2.29139512,12.561 L0.484395122,14.05 C-0.0176048776,14.464 -0.146604878,15.182 0.178395122,15.746 L1.04739512,17.254 C1.37239512,17.818 2.05839512,18.064 2.66739512,17.836 L4.86539512,17.011 C5.64439512,17.695 6.55539512,18.229 7.55739512,18.57 L7.94239512,20.886 C8.04939512,21.529 8.60439512,22 9.25539512,22 L10.9933951,22 C11.6453951,22 12.2003951,21.529 12.3073951,20.886 L12.6923951,18.57 C13.6943951,18.228 14.6043951,17.695 15.3843951,17.011 L17.5823951,17.836 C18.1913951,18.064 18.8763951,17.818 19.2023951,17.254 L20.0713951,15.746 C20.3963951,15.182 20.2673951,14.464 19.7643951,14.05 L17.9583951,12.561 Z" id="Stroke"></path>
                <path d="M13.1243951,11 C13.1243951,12.657 11.7813951,14 10.1243951,14 C8.46839512,14 7.12439512,12.657 7.12439512,11 C7.12439512,9.343 8.46839512,8 10.1243951,8 C11.7813951,8 13.1243951,9.343 13.1243951,11 Z" id="Stroke"></path>
            </g>
        </g>
    </g>
</svg>