<svg xmlns="http://www.w3.org/2000/svg" width="38" height="38" viewBox="0 0 38 38">
    <g fill="none" fill-rule="evenodd" stroke-linecap="round" stroke-linejoin="round">
        <g stroke="#000" stroke-width="2">
            <g>
                <g>
                    <path d="M7 0C5.343 0 4 1.343 4 3v8c0 1.657 1.343 3 3 3s3-1.343 3-3V3c0-1.657-1.343-3-3-3z" transform="translate(-70 -514) translate(70 514.5) translate(12 8)"/>
                    <path d="M14 9v2c0 3.866-3.134 7-7 7s-7-3.134-7-7V9M7 18L7 22M3 22L11 22" transform="translate(-70 -514) translate(70 514.5) translate(12 8)"/>
                </g>
            </g>
        </g>
    </g>
</svg>
