<svg xmlns="http://www.w3.org/2000/svg" width="38" height="38" viewBox="0 0 38 38">
    <g fill="none" fill-rule="evenodd" stroke-linecap="round" stroke-linejoin="round">
        <g stroke="#000" stroke-width="2">
            <g>
                <path d="M0 0L22 22M8 8v3c.001 1.213.732 2.305 1.852 2.77 1.12.463 2.41.207 3.268-.65M14 8.34V3c.002-1.541-1.165-2.833-2.699-2.988C9.768-.143 8.367.89 8.06 2.4" transform="translate(-69 -469) translate(77 477)"/>
                <path d="M16 15.95c-1.997 2.038-5.032 2.66-7.67 1.572S3.98 13.854 4 11V9m14 0v2c0 .412-.037.824-.11 1.23M11 18L11 22M7 22L15 22" transform="translate(-69 -469) translate(77 477)"/>
            </g>
        </g>
    </g>
</svg>
