<svg xmlns="http://www.w3.org/2000/svg" width="38" height="38" viewBox="0 0 38 38">
    <path fill="#FFF" fill-rule="nonzero" d="M8.702 9.988l1.926-1.926a3.018 3.018 0 0 0 0-4.266L7.716.884a3.017 3.017 0 0 0-4.268 0L2.064 2.268A7.103 7.103 0 0 0 .135 8.664c1.495 7.66 7.542 13.707 15.202 15.203a7.11 7.11 0 0 0 6.396-1.93l1.384-1.385a3.017 3.017 0 0 0 0-4.267l-2.912-2.912a3.016 3.016 0 0 0-4.267 0L14.012 15.3a11.57 11.57 0 0 1-5.31-5.31zm13 9.15l-1.384 1.384a5.11 5.11 0 0 1-4.598 1.382C8.859 20.564 3.437 15.14 2.098 8.28a5.103 5.103 0 0 1 1.38-4.598l1.385-1.385a1.017 1.017 0 0 1 1.438 0L9.213 5.21c.397.397.397 1.041 0 1.439L6.798 9.063a1 1 0 0 0-.215 1.093 13.56 13.56 0 0 0 7.262 7.262 1 1 0 0 0 1.093-.216l2.415-2.415a1.016 1.016 0 0 1 1.437 0l2.912 2.912a1.017 1.017 0 0 1 0 1.44z"/>
</svg>
