<svg width="30" height="30" viewBox="0 0 30 30" xmlns="http://www.w3.org/2000/svg">
    <g fill="none" fill-rule="evenodd">
        <g stroke-linecap="round" stroke-linejoin="round" stroke="#000" stroke-width="1.875">
            <path d="M16.771 10.226a2.432 2.432 0 0 1-3.437 3.438 2.432 2.432 0 0 1 3.437-3.438"/>
            <path d="M19.166 7.777 17.9 5.673A1.388 1.388 0 0 0 16.71 5h-3.458c-.493 0-.95.263-1.198.689l-1.22 2.088h-1.91c-.959 0-1.736.778-1.736 1.737v6.25c0 .959.777 1.736 1.736 1.736h12.152c.959 0 1.736-.777 1.736-1.736v-6.25c0-.959-.777-1.736-1.735-1.736h-1.91 0zM13.334 26.25 15 24.584l-1.666-1.666M26.111 17.508c.879.665 1.389 1.415 1.389 2.215 0 2.044-3.25 3.79-7.848 4.51"/>
            <path d="M3.889 17.508c-.879.665-1.389 1.415-1.389 2.215 0 2.684 5.596 4.86 12.5 4.86"/>
        </g>
        <path d="M0 0h30v30H0z"/>
    </g>
</svg>
