<svg xmlns="http://www.w3.org/2000/svg" width="16" height="13" viewBox="0 0 16 13">
    <g fill="none" fill-rule="evenodd">
        <g>
            <g>
                <g>
                    <path fill="#D8D8D8" stroke="#D8D8D8" stroke-linecap="round" stroke-linejoin="bevel" stroke-width="2" d="M8.739.08l1.88.896h2.35c.776 0 1.41.643 1.41 1.43v7.289c0 .786-.634 1.43-1.41 1.43H1.69c-.777 0-1.411-.644-1.411-1.43v-7.29c0-.786.634-1.429 1.41-1.429h2.35l1.88-.895h2.82zm-1.41 3.364c-1.298 0-2.35 1.067-2.35 2.382 0 1.316 1.052 2.383 2.35 2.383 1.297 0 2.35-1.067 2.35-2.383 0-1.315-1.053-2.382-2.35-2.382zm5.17-1.515c-.26 0-.47.213-.47.477 0 .263.21.476.47.476s.47-.213.47-.476c0-.264-.21-.477-.47-.477z" transform="translate(-16 -757) translate(16 757) translate(.615 .619)"/>
                    <path fill="#FFF" stroke="#FFF" stroke-linecap="round" stroke-linejoin="bevel" stroke-width="2" d="M9.679 5.826c0 1.316-1.053 2.383-2.35 2.383-1.298 0-2.35-1.067-2.35-2.383 0-1.315 1.052-2.382 2.35-2.382 1.297 0 2.35 1.067 2.35 2.382h0z" transform="translate(-16 -757) translate(16 757) translate(.615 .619)"/>
                    <path fill="#FFF" d="M12.5 1.93c-.26 0-.47.212-.47.476 0 .263.21.476.47.476s.47-.213.47-.476c0-.264-.21-.477-.47-.477" transform="translate(-16 -757) translate(16 757) translate(.615 .619)"/>
                </g>
            </g>
        </g>
    </g>
</svg>
