<svg xmlns="http://www.w3.org/2000/svg" width="38" height="36" viewBox="0 0 38 36">
    <g fill="none" fill-rule="evenodd" stroke="#778A9F" stroke-linecap="round" stroke-linejoin="round" stroke-width="2">
        <path d="M24 27.474H12c-1.104 0-2-.85-2-1.895V10.42c0-1.046.896-1.895 2-1.895h14V25.58c0 1.046-.896 1.895-2 1.895z"/>
        <path d="M18 18.947c1.38 0 2.5-1.06 2.5-2.368 0-1.307-1.12-2.368-2.5-2.368s-2.5 1.06-2.5 2.368c0 1.307 1.12 2.368 2.5 2.368zM22 22.9c-.914-.673-2.369-1.11-4-1.11-1.63 0-3.086.437-4 1.11M8 12.315h2M8 18h2M8 23.684h2M26 8.526h2c1.104 0 2 .85 2 1.895v1.895c0 1.046-.896 1.895-2 1.895h-2"/>
        <path d="M26 14.21h2c1.104 0 2 .85 2 1.895V18c0 1.046-.896 1.895-2 1.895h-2"/>
    </g>
</svg>
