<svg xmlns="http://www.w3.org/2000/svg" xmlns:xlink="http://www.w3.org/1999/xlink" width="14" height="16" viewBox="0 0 14 16">
    <defs>
        <path id="v1k4lwul0a" d="M2.006 0C.897 0 0 .893 0 1.994v12.012C0 15.106.898 16 2.006 16h9.988C13.103 16 14 15.107 14 14.006V1.994C14 .895 13.102 0 11.994 0H2.006z"/>
    </defs>
    <g fill="none" fill-rule="evenodd">
        <g>
            <g transform="translate(-148 -755) translate(148 755)">
                <mask id="bhyg93vrab" fill="#fff">
                    <use xlink:href="#v1k4lwul0a"/>
                </mask>
                <path fill="#D8D8D8" d="M14 0v16H0V0h14zM9.333 10H4.667l-.06.005c-.213.033-.378.242-.378.495 0 .276.196.5.438.5h4.666l.06-.005c.213-.033.378-.242.378-.495 0-.276-.196-.5-.438-.5zm-1.75-2.462H4.667l-.06.005c-.213.033-.378.242-.378.495 0 .246.155.45.359.492l.079.008h2.916l.06-.004c.213-.033.378-.242.378-.496 0-.276-.196-.5-.438-.5zm1.75-2.461H4.667l-.06.004c-.213.034-.378.243-.378.496 0 .245.155.45.359.492l.079.008h4.666l.06-.005c.213-.033.378-.242.378-.495 0-.276-.196-.5-.438-.5z" mask="url(#bhyg93vrab)"/>
            </g>
        </g>
    </g>
</svg>
