<svg xmlns="http://www.w3.org/2000/svg" width="16" height="18" viewBox="0 0 16 18">
    <g fill="none" fill-rule="evenodd">
        <g fill="#D8D8D8">
            <g>
                <path d="M15.315.748c0-.422-.287-.457-.502-.422C11.657 1.206 8.5 2.12 5.345 3c-.18.035-.359.105-.43.246l-.036.035c-.072.106-.072.211-.072.352v8.054c-1.183-.738-2.94-.457-3.837.598-1.757 2.04.107 5.276 2.761 4.82 1.004-.177 1.9-.915 2.26-1.865.25-.633.25-1.337.25-2.04 0-2.322 0-4.608-.035-6.93 2.546-.703 5.092-1.441 7.638-2.145v5.03c-1.04-.633-2.474-.563-3.442.211-.969.739-1.363 2.11-.969 3.236.395 1.126 1.578 1.97 2.798 1.97 1.219 0 2.402-.81 2.833-1.935.25-.668.25-1.372.25-2.075.037-3.236.037-6.542 0-9.814z" transform="translate(-100 -754) translate(100 754)"/>
            </g>
        </g>
    </g>
</svg>
