<svg xmlns="http://www.w3.org/2000/svg" width="24" height="24" viewBox="0 0 24 24">
    <g fill="none" fill-rule="evenodd" stroke="#778A9F" stroke-linecap="round" stroke-linejoin="round" stroke-width="2">
        <path d="M19.846 13.561a8.03 8.03 0 0 0 0-3.122l1.806-1.489a1.335 1.335 0 0 0 .307-1.696l-.869-1.508a1.332 1.332 0 0 0-1.62-.582l-2.198.825A7.981 7.981 0 0 0 14.58 4.43l-.385-2.316A1.332 1.332 0 0 0 12.881 1h-1.738c-.651 0-1.206.471-1.313 1.114L9.445 4.43a7.972 7.972 0 0 0-2.692 1.559l-2.198-.825a1.332 1.332 0 0 0-1.62.582l-.869 1.508a1.335 1.335 0 0 0 .306 1.696l1.807 1.489a7.946 7.946 0 0 0 0 3.122L2.372 15.05a1.335 1.335 0 0 0-.306 1.696l.869 1.508c.325.564 1.011.81 1.62.582l2.198-.825a7.972 7.972 0 0 0 2.692 1.559l.385 2.316A1.331 1.331 0 0 0 11.143 23h1.738c.652 0 1.207-.471 1.314-1.114l.385-2.316a7.998 7.998 0 0 0 2.692-1.559l2.198.825a1.332 1.332 0 0 0 1.62-.582l.869-1.508a1.335 1.335 0 0 0-.307-1.696l-1.806-1.489z"/>
        <path d="M15.012 12a3 3 0 1 1-6 0 3 3 0 0 1 6 0z"/>
    </g>
</svg>
