<svg xmlns="http://www.w3.org/2000/svg" width="12" height="15" viewBox="0 0 12 15">
    <g fill="none" fill-rule="evenodd">
        <g fill="#D8D8D8">
            <g>
                <path d="M11.636 2.432c0-1.326-.758-2.401-1.693-2.401H2.057C1.122.031.364 1.106.364 2.432v.038h11.272v-.038zM11.696 3.634c-.189-.233-.465-.368-.756-.368H1.06c-.291 0-.567.135-.756.368-.19.234-.272.543-.226.847l1.436 9.602c.077.51.493.886.983.886h7.006c.49 0 .906-.376.982-.886l1.437-9.602c.046-.304-.037-.613-.226-.847zm-8.483 9.908l-.05.002c-.292 0-.54-.235-.566-.548l-.594-7.177c-.027-.33.204-.62.517-.65.31-.035.588.216.615.546l.594 7.177c.028.33-.204.621-.516.65zm3.355-.598c0 .331-.255.6-.568.6-.314 0-.569-.269-.569-.6V5.74c0-.332.255-.6.569-.6.313 0 .568.268.568.6v7.204zm2.762.052c-.026.313-.274.548-.566.548-.016 0-.033 0-.05-.002-.312-.029-.544-.32-.516-.65l.594-7.177c.027-.33.303-.58.615-.546.313.029.544.32.516.65l-.593 7.177z" transform="translate(-198 -756) translate(198 756)"/>
            </g>
        </g>
    </g>
</svg>
