<svg xmlns="http://www.w3.org/2000/svg" width="242" height="45" viewBox="0 0 242 45">
    <defs>
        <filter id="a" width="113.4%" height="112.5%" x="-6.7%" y="-6.2%" filterUnits="objectBoundingBox">
            <feOffset dy="2" in="SourceAlpha" result="shadowOffsetOuter1"/>
            <feGaussianBlur in="shadowOffsetOuter1" result="shadowBlurOuter1" stdDeviation="12"/>
            <feColorMatrix in="shadowBlurOuter1" result="shadowMatrixOuter1" values="0 0 0 0 0 0 0 0 0 0 0 0 0 0 0 0 0 0 0.302857299 0"/>
            <feMerge>
                <feMergeNode in="shadowMatrixOuter1"/>
                <feMergeNode in="SourceGraphic"/>
            </feMerge>
        </filter>
    </defs>
    <g fill="#333" fill-rule="evenodd" filter="url(#a)" opacity=".105" transform="translate(-517 -729)">
        <path d="M517 749.053h2v1h-2zM523 749.053h2v1h-2zM526 748.829h2v1.194h-2zM529 748.68h2v1.493h-2zM532 748.307h2v2.314h-2zM535 747.59h2v3.748h-2zM574 746.948h2v4.927h-2zM1033 746.948h2v4.927h-2zM1171 746.948h2v4.927h-2zM799 746.53h2v5.658h-2zM994 746.53h2v5.658h-2zM871 747.097h2v4.927h-2zM682 746.948h2v4.927h-2zM943 746.948h2v4.927h-2zM739 746.948h2v4.927h-2zM688 746.508h2v5.807h-2zM949 746.508h2v5.807h-2zM745 746.508h2v5.807h-2zM652 747.023h2v4.927h-2zM1111 747.023h2v4.927h-2zM913 747.023h2v4.927h-2zM709 747.859h2v3.359h-2zM766 747.859h2v3.359h-2zM961 747.859h2v3.359h-2zM613 746.948h2v4.927h-2zM1072 746.948h2v4.927h-2zM1210 746.948h2v4.927h-2zM838 746.948h2v4.927h-2zM562 746.948h2v4.927h-2zM1021 746.948h2v4.927h-2zM1159 746.948h2v4.927h-2zM787 746.948h2v4.927h-2zM982 746.948h2v4.927h-2zM640 747.023h2v4.927h-2zM1099 747.023h2v4.927h-2zM1237 747.5h2v3.642h-2zM901 747.023h2v4.927h-2zM697 747.023h2v4.927h-2zM601 746.583h2v5.658h-2zM1060 746.583h2v5.658h-2zM1198 746.583h2v5.658h-2zM826 746.583h2v5.658h-2zM679 746.657h2v5.658h-2zM940 746.657h2v5.658h-2zM736 746.657h2v5.658h-2zM550 747.228h2v4.471h-2zM1009 747.228h2v4.471h-2zM1147 747.228h2v4.471h-2zM775 747.228h2v4.471h-2zM970 747.228h2v4.471h-2zM589 747.228h2v4.471h-2zM1048 747.228h2v4.471h-2zM1186 747.228h2v4.471h-2zM814 747.096h2v4.736h-2zM886 747.377h2v4.471h-2zM667 747.303h2v4.471h-2zM1126 747.303h2v4.471h-2zM928 747.303h2v4.471h-2zM724 747.303h2v4.471h-2zM751 747.021h2v5.035h-2zM631 747.543h2v3.793h-2zM1090 747.543h2v3.793h-2zM1228 747.543h2v3.793h-2zM856 746.86h2v5.262h-2zM538 747.59h2v3.748h-2zM997 747.59h2v3.748h-2zM1135 747.59h2v3.748h-2zM577 746.948h2v4.927h-2zM1036 746.948h2v4.927h-2zM1174 746.948h2v4.927h-2zM802 746.56h2v5.598h-2zM874 747.097h2v4.927h-2zM685 746.948h2v4.927h-2zM946 746.948h2v4.927h-2zM742 746.948h2v4.927h-2zM691 746.948h2v4.927h-2zM952 746.948h2v4.927h-2zM748 746.948h2v4.927h-2zM655 747.023h2v4.927h-2zM1114 747.023h2v4.927h-2zM916 747.023h2v4.927h-2zM712 747.859h2v3.359h-2zM616 746.948h2v4.927h-2zM1075 746.948h2v4.927h-2zM1213 746.948h2v4.927h-2zM841 746.948h2v4.927h-2zM565 746.948h2v4.927h-2zM1024 746.948h2v4.927h-2zM1162 746.948h2v4.927h-2zM790 746.948h2v4.927h-2zM985 746.948h2v4.927h-2zM862 747.097h2v4.927h-2zM643 747.023h2v4.927h-2zM1102 747.023h2v4.927h-2zM1240 748.756h2v2.248h-2zM904 747.023h2v4.927h-2zM700 747.023h2v4.927h-2zM604 746.948h2v4.927h-2zM1063 746.948h2v4.927h-2zM1201 746.948h2v4.927h-2zM829 746.948h2v4.927h-2zM553 747.228h2v4.471h-2zM1012 747.228h2v4.471h-2zM1150 747.228h2v4.471h-2zM778 747.228h2v4.471h-2zM973 747.228h2v4.471h-2zM592 747.228h2v4.471h-2zM1051 747.228h2v4.471h-2zM1189 747.228h2v4.471h-2zM817 747.228h2v4.471h-2zM889 747.377h2v4.471h-2zM670 747.303h2v4.471h-2zM1129 747.303h2v4.471h-2zM931 747.303h2v4.471h-2zM727 747.303h2v4.471h-2zM754 747.17h2v4.736h-2zM634 747.543h2v3.793h-2zM1093 747.543h2v3.793h-2zM1231 747.543h2v3.793h-2zM895 747.543h2v3.793h-2zM859 746.86h2v5.262h-2zM541 747.59h2v3.748h-2zM1000 747.59h2v3.748h-2zM1138 747.59h2v3.748h-2zM580 747.107h2v4.599h-2zM1039 747.107h2v4.599h-2zM1177 747.107h2v4.599h-2zM805 746.737h2v5.339h-2zM877 747.256h2v4.599h-2zM658 747.181h2v4.599h-2zM1117 747.181h2v4.599h-2zM919 747.181h2v4.599h-2zM715 747.428h2v4.214h-2zM619 747.107h2v4.599h-2zM1078 747.107h2v4.599h-2zM1216 747.107h2v4.599h-2zM844 747.107h2v4.599h-2zM568 747.112h2v4.599h-2zM1027 747.112h2v4.599h-2zM1165 747.112h2v4.599h-2zM793 746.855h2v5.035h-2zM988 746.855h2v5.035h-2zM865 747.261h2v4.599h-2zM646 747.187h2v4.599h-2zM1105 747.187h2v4.599h-2zM1243 749.113h2v2.099h-2zM907 747.187h2v4.599h-2zM703 747.187h2v4.599h-2zM607 747.112h2v4.599h-2zM1066 747.112h2v4.599h-2zM1204 747.112h2v4.599h-2zM832 747.112h2v4.599h-2zM556 747.027h2v4.927h-2zM1015 747.027h2v4.927h-2zM1153 747.027h2v4.927h-2zM781 747.027h2v4.927h-2zM976 747.027h2v4.927h-2zM595 747.027h2v4.927h-2zM1054 747.027h2v4.927h-2zM1192 747.027h2v4.927h-2zM820 747.027h2v4.927h-2zM892 747.176h2v4.927h-2zM673 747.102h2v4.927h-2zM1132 747.102h2v4.927h-2zM934 747.102h2v4.927h-2zM730 747.102h2v4.927h-2zM757 747.256h2v4.617h-2zM637 747.373h2v4.18h-2zM1096 747.373h2v4.18h-2zM1234 747.759h2v3.089h-2zM898 747.373h2v4.18h-2zM694 747.373h2v4.18h-2zM544 747.59h2v3.748h-2zM1003 747.59h2v3.748h-2zM1141 747.59h2v3.748h-2zM769 747.59h2v3.748h-2zM964 747.59h2v3.748h-2zM583 747.107h2v4.599h-2zM1042 747.107h2v4.599h-2zM1180 747.107h2v4.599h-2zM808 746.886h2v5.041h-2zM880 747.256h2v4.599h-2zM661 747.181h2v4.599h-2zM1120 747.181h2v4.599h-2zM922 747.181h2v4.599h-2zM718 747.181h2v4.599h-2zM625 747.441h2v3.901h-2zM1084 747.441h2v3.901h-2zM1222 747.441h2v3.901h-2zM850 746.718h2v5.412h-2zM622 747.107h2v4.599h-2zM1081 747.107h2v4.599h-2zM1219 747.107h2v4.599h-2zM847 747.107h2v4.599h-2zM571 747.112h2v4.599h-2zM1030 747.112h2v4.599h-2zM1168 747.112h2v4.599h-2zM796 746.723h2v5.299h-2zM991 746.723h2v5.299h-2zM868 747.261h2v4.599h-2zM649 747.187h2v4.599h-2zM1108 747.187h2v4.599h-2zM1246 749.261h2v1.802h-2zM1249 749.369h2v1.587h-2zM1252 749.523h2v1.279h-2zM1255 749.733h2v1h-2zM1258 749.871h2v1h-2zM1261 750.012h2v1h-2zM1270 750.012h2v1h-2zM1279 750.012h2v1h-2zM1264 750.012h2v1h-2zM1273 750.012h2v1h-2zM1282 750.012h2v1h-2zM1288 750.012h2v1h-2zM1291 750.012h2v1h-2zM1267 750.012h2v1h-2zM1276 750.012h2v1h-2zM1285 750.012h2v1h-2zM910 747.187h2v4.599h-2zM706 747.971h2v3.135h-2zM763 747.971h2v3.135h-2zM958 747.971h2v3.135h-2zM610 747.112h2v4.599h-2zM1069 747.112h2v4.599h-2zM1207 747.112h2v4.599h-2zM835 747.112h2v4.599h-2zM559 747.34h2v4.301h-2zM1018 747.34h2v4.301h-2zM1156 747.34h2v4.301h-2zM784 747.34h2v4.301h-2zM979 747.34h2v4.301h-2zM598 747.34h2v4.301h-2zM1057 747.34h2v4.301h-2zM1195 747.34h2v4.301h-2zM823 747.34h2v4.301h-2zM676 747.414h2v4.301h-2zM937 747.414h2v4.301h-2zM733 747.414h2v4.301h-2zM760 747.414h2v4.301h-2zM955 747.414h2v4.301h-2zM547 746.929h2v5.07h-2zM1006 746.929h2v5.07h-2zM1144 746.929h2v5.07h-2zM772 746.929h2v5.07h-2zM967 746.929h2v5.07h-2zM586 746.929h2v5.07h-2zM1045 746.929h2v5.07h-2zM1183 746.929h2v5.07h-2zM811 747.021h2v4.886h-2zM883 747.078h2v5.07h-2zM664 747.003h2v5.07h-2zM1123 747.003h2v5.07h-2zM925 747.003h2v5.07h-2zM721 747.003h2v5.07h-2zM628 747.289h2v4.301h-2zM1087 747.289h2v4.301h-2zM1225 747.289h2v4.301h-2zM853 746.508h2v5.967h-2zM520 748.68h2v1.642h-2z"/>
    </g>
</svg>
